# xmcd
# Copyright (C) 1995-1998 Ti Kan
#
# Track frame offsets:
#       150
#       20227
#       34988
#       54351
#       71705
#       85447
#       102751
#       117277
#       133249
#       155481
#       173438
#       196645
#
# Disc length: 2857 seconds
#
# Revision: 0
# Processed by: cddbd v1.5.2PL0 Copyright (c) Steve Scherf et al.
# Submitted via: CD-Import v1.0
#
DISCID=a00b270c
DTITLE=Redwood - Best Laid Plans
DYEAR=06
DGENRE=
TTITLE0=Signs
TTITLE1=Apologize
TTITLE2=Woo (Sci-Fi Beat)
TTITLE3=B-Sides
TTITLE4=Someone Else
TTITLE5=My Birthday
TTITLE6=On
TTITLE7=Best Laid Plans
TTITLE8=Resignation
TTITLE9=Clouds
TTITLE10=Roof Drops
TTITLE11=Planet Around The Sun
EXTD=
EXTT0=
EXTT1=
EXTT2=
EXTT3=
EXTT4=
EXTT5=
EXTT6=
EXTT7=
EXTT8=
EXTT9=
EXTT10=
EXTT11=
PLAYORDER=
